<svg width="100%" viewBox="0 0 680 290" xmlns="http://www.w3.org/2000/svg">


<rect width="680" height="280" rx="16" style="fill:none;stroke:none;color:rgb(255, 255, 255);stroke-width:1px;stroke-linecap:butt;stroke-linejoin:miter;opacity:1;font-family:&quot;Anthropic Sans&quot;, -apple-system, &quot;system-ui&quot;, &quot;Segoe UI&quot;, sans-serif;font-size:16px;font-weight:400;text-anchor:start;dominant-baseline:auto"/>

<g transform="translate(340, 140)" style="fill:rgb(0, 0, 0);stroke:none;color:rgb(255, 255, 255);stroke-width:1px;stroke-linecap:butt;stroke-linejoin:miter;opacity:1;font-family:&quot;Anthropic Sans&quot;, -apple-system, &quot;system-ui&quot;, &quot;Segoe UI&quot;, sans-serif;font-size:16px;font-weight:400;text-anchor:start;dominant-baseline:auto">
  <g transform="translate(-130, -52)" style="fill:rgb(0, 0, 0);stroke:none;color:rgb(255, 255, 255);stroke-width:1px;stroke-linecap:butt;stroke-linejoin:miter;opacity:1;font-family:&quot;Anthropic Sans&quot;, -apple-system, &quot;system-ui&quot;, &quot;Segoe UI&quot;, sans-serif;font-size:16px;font-weight:400;text-anchor:start;dominant-baseline:auto">
    <circle cx="0" cy="0" r="3" fill="#00C9A7" opacity="0.3" style="fill:rgb(0, 201, 167);stroke:none;color:rgb(255, 255, 255);stroke-width:1px;stroke-linecap:butt;stroke-linejoin:miter;opacity:0.3;font-family:&quot;Anthropic Sans&quot;, -apple-system, &quot;system-ui&quot;, &quot;Segoe UI&quot;, sans-serif;font-size:16px;font-weight:400;text-anchor:start;dominant-baseline:auto"/>

    <path d="&#10;      M 0,-46&#10;      C 14,-46 27,-40 36,-30&#10;      C 45,-20 48,-6 44,8&#10;      C 41,18 34,26 25,31&#10;      L 25,42&#10;      L 15,42&#10;      L 15,26&#10;      C 24,22 31,15 34,6&#10;      C 38,-4 36,-16 29,-24&#10;      C 22,-32 12,-37 0,-37&#10;      C -12,-37 -22,-32 -29,-24&#10;      C -36,-16 -38,-4 -34,6&#10;      C -31,15 -24,22 -15,26&#10;      L -15,42&#10;      L -25,42&#10;      L -25,31&#10;      C -34,26 -41,18 -44,8&#10;      C -48,-6 -45,-20 -36,-30&#10;      C -27,-40 -14,-46 0,-46&#10;      Z&#10;    " opacity="0.95" style="fill:rgb(0, 201, 167);stroke:none;color:rgb(255, 255, 255);stroke-width:1px;stroke-linecap:butt;stroke-linejoin:miter;opacity:0.95;font-family:&quot;Anthropic Sans&quot;, -apple-system, &quot;system-ui&quot;, &quot;Segoe UI&quot;, sans-serif;font-size:16px;font-weight:400;text-anchor:start;dominant-baseline:auto"/>

    <rect x="-18" y="42" width="36" height="8" rx="4" opacity="0.7" style="fill:rgb(0, 201, 167);stroke:none;color:rgb(255, 255, 255);stroke-width:1px;stroke-linecap:butt;stroke-linejoin:miter;opacity:0.7;font-family:&quot;Anthropic Sans&quot;, -apple-system, &quot;system-ui&quot;, &quot;Segoe UI&quot;, sans-serif;font-size:16px;font-weight:400;text-anchor:start;dominant-baseline:auto"/>
    <rect x="-10" y="50" width="20" height="5" rx="2.5" opacity="0.4" style="fill:rgb(0, 201, 167);stroke:none;color:rgb(255, 255, 255);stroke-width:1px;stroke-linecap:butt;stroke-linejoin:miter;opacity:0.4;font-family:&quot;Anthropic Sans&quot;, -apple-system, &quot;system-ui&quot;, &quot;Segoe UI&quot;, sans-serif;font-size:16px;font-weight:400;text-anchor:start;dominant-baseline:auto"/>

    <circle cx="-20" cy="-4" r="5.5" style="fill:rgb(0, 201, 167);stroke:none;color:rgb(255, 255, 255);stroke-width:1px;stroke-linecap:butt;stroke-linejoin:miter;opacity:1;font-family:&quot;Anthropic Sans&quot;, -apple-system, &quot;system-ui&quot;, &quot;Segoe UI&quot;, sans-serif;font-size:16px;font-weight:400;text-anchor:start;dominant-baseline:auto"/>
    <circle cx="20" cy="-4" r="5.5" style="fill:rgb(0, 201, 167);stroke:none;color:rgb(255, 255, 255);stroke-width:1px;stroke-linecap:butt;stroke-linejoin:miter;opacity:1;font-family:&quot;Anthropic Sans&quot;, -apple-system, &quot;system-ui&quot;, &quot;Segoe UI&quot;, sans-serif;font-size:16px;font-weight:400;text-anchor:start;dominant-baseline:auto"/>
    <circle cx="0" cy="14" r="5.5" style="fill:rgb(0, 201, 167);stroke:none;color:rgb(255, 255, 255);stroke-width:1px;stroke-linecap:butt;stroke-linejoin:miter;opacity:1;font-family:&quot;Anthropic Sans&quot;, -apple-system, &quot;system-ui&quot;, &quot;Segoe UI&quot;, sans-serif;font-size:16px;font-weight:400;text-anchor:start;dominant-baseline:auto"/>

    <line x1="-15" y1="-4" x2="-4" y2="11" stroke="#00C9A7" stroke-width="2.5" stroke-linecap="round" style="fill:rgb(0, 0, 0);stroke:rgb(0, 201, 167);color:rgb(255, 255, 255);stroke-width:2.5px;stroke-linecap:round;stroke-linejoin:miter;opacity:1;font-family:&quot;Anthropic Sans&quot;, -apple-system, &quot;system-ui&quot;, &quot;Segoe UI&quot;, sans-serif;font-size:16px;font-weight:400;text-anchor:start;dominant-baseline:auto"/>
    <line x1="15" y1="-4" x2="4" y2="11" stroke="#00C9A7" stroke-width="2.5" stroke-linecap="round" style="fill:rgb(0, 0, 0);stroke:rgb(0, 201, 167);color:rgb(255, 255, 255);stroke-width:2.5px;stroke-linecap:round;stroke-linejoin:miter;opacity:1;font-family:&quot;Anthropic Sans&quot;, -apple-system, &quot;system-ui&quot;, &quot;Segoe UI&quot;, sans-serif;font-size:16px;font-weight:400;text-anchor:start;dominant-baseline:auto"/>
    <line x1="-15" y1="-2" x2="15" y2="-2" stroke="#00C9A7" stroke-width="2.5" stroke-linecap="round" style="fill:rgb(0, 0, 0);stroke:rgb(0, 201, 167);color:rgb(255, 255, 255);stroke-width:2.5px;stroke-linecap:round;stroke-linejoin:miter;opacity:1;font-family:&quot;Anthropic Sans&quot;, -apple-system, &quot;system-ui&quot;, &quot;Segoe UI&quot;, sans-serif;font-size:16px;font-weight:400;text-anchor:start;dominant-baseline:auto"/>
  </g>

  <text x="0" y="58" text-anchor="middle" style="fill:rgb(26, 26, 26);stroke:none;color:rgb(26, 26, 26);stroke-width:1px;stroke-linecap:butt;stroke-linejoin:miter;opacity:1;font-family:-apple-system, &quot;system-ui&quot;, &quot;Helvetica Neue&quot;, sans-serif;font-size:36px;font-weight:600;text-anchor:middle;dominant-baseline:auto">SAVANT</text>
</g>
</svg>